<?xml version="1.0" standalone="no"?>
<!DOCTYPE svg PUBLIC "-//W3C//DTD SVG 20010904//EN"
 "http://www.w3.org/TR/2001/REC-SVG-20010904/DTD/svg10.dtd">
<svg version="1.0" xmlns="http://www.w3.org/2000/svg"
 width="48.000000pt" height="48.000000pt" viewBox="0 0 48.000000 48.000000"
 preserveAspectRatio="xMidYMid meet">
<metadata>
Created by potrace 1.15, written by Peter Selinger 2001-2017
</metadata>
<g transform="translate(0.000000,48.000000) scale(0.100000,-0.100000)"
fill="#000000" stroke="none">
<path d="M10 240 l0 -230 230 0 230 0 0 230 0 230 -230 0 -230 0 0 -230z m445
188 c-3 -18 -7 -113 -11 -210 l-6 -178 -199 0 c-109 0 -199 3 -199 8 0 4 88 6
195 4 l195 -3 0 196 0 195 -192 -2 -193 -3 -7 -155 c-12 -258 -14 -265 -16
-37 l-2 217 219 0 220 0 -4 -32z m-285 -56 c0 -16 112 -132 127 -132 10 0 12
-6 8 -20 -8 -26 5 -25 39 1 21 16 26 17 26 5 0 -8 -10 -22 -22 -31 l-23 -16
28 -25 c24 -20 27 -27 17 -39 -16 -19 -34 -19 -27 -1 8 20 -34 28 -53 11 -16
-15 -40 -20 -40 -9 0 3 11 20 26 39 17 23 21 35 13 40 -6 4 -15 2 -19 -5 -5
-8 -22 4 -55 39 -26 28 -63 60 -81 72 -26 16 -34 27 -34 50 0 27 3 29 35 29
19 0 35 -4 35 -8z"/>
</g>
</svg>
